<mxfile host="app.diagrams.net" agent="Mozilla/5.0 (Windows NT 10.0; Win64; x64) AppleWebKit/537.36 (KHTML, like Gecko) Chrome/137.0.0.0 Safari/537.36" version="27.1.6">
  <diagram name="Page-1" id="BoLtL8AGaUPm_GQSPCp2">
    <mxGraphModel dx="872" dy="1642" grid="1" gridSize="10" guides="1" tooltips="1" connect="1" arrows="1" fold="1" page="1" pageScale="1" pageWidth="827" pageHeight="1169" math="0" shadow="0">
      <root>
        <mxCell id="0" />
        <mxCell id="1" parent="0" />
        <mxCell id="ou2zcvMPRxFPWoFnGi-2-3" value="&lt;h1&gt;&lt;font face=&quot;Times New Roman&quot;&gt;Book&lt;/font&gt;&lt;/h1&gt;" style="whiteSpace=wrap;html=1;aspect=fixed;fillColor=#f8cecc;strokeColor=#b85450;" vertex="1" parent="1">
          <mxGeometry x="180" y="80" width="90" height="90" as="geometry" />
        </mxCell>
        <mxCell id="ou2zcvMPRxFPWoFnGi-2-4" value="&lt;h1&gt;&lt;font face=&quot;Times New Roman&quot;&gt;Author&lt;/font&gt;&lt;/h1&gt;" style="whiteSpace=wrap;html=1;aspect=fixed;fillColor=#f8cecc;strokeColor=#b85450;" vertex="1" parent="1">
          <mxGeometry x="370" y="200" width="90" height="90" as="geometry" />
        </mxCell>
        <mxCell id="ou2zcvMPRxFPWoFnGi-2-5" value="&lt;h1&gt;&lt;font face=&quot;Times New Roman&quot;&gt;publisher&lt;/font&gt;&lt;/h1&gt;" style="whiteSpace=wrap;html=1;aspect=fixed;fillColor=#f8cecc;strokeColor=#b85450;" vertex="1" parent="1">
          <mxGeometry x="590" y="210" width="100" height="100" as="geometry" />
        </mxCell>
        <mxCell id="ou2zcvMPRxFPWoFnGi-2-17" value="" style="edgeStyle=orthogonalEdgeStyle;rounded=0;orthogonalLoop=1;jettySize=auto;html=1;entryX=0;entryY=1;entryDx=0;entryDy=0;" edge="1" parent="1" source="ou2zcvMPRxFPWoFnGi-2-6" target="ou2zcvMPRxFPWoFnGi-2-3">
          <mxGeometry relative="1" as="geometry">
            <mxPoint x="135" y="120" as="targetPoint" />
            <Array as="points">
              <mxPoint x="135" y="160" />
              <mxPoint x="136" y="160" />
              <mxPoint x="136" y="170" />
            </Array>
          </mxGeometry>
        </mxCell>
        <mxCell id="ou2zcvMPRxFPWoFnGi-2-6" value="&lt;h2&gt;&lt;font face=&quot;Courier New&quot;&gt;&lt;i&gt;book name&lt;/i&gt;&lt;/font&gt;&lt;/h2&gt;&lt;h2&gt;&lt;font face=&quot;Courier New&quot;&gt;book id&lt;/font&gt;&lt;/h2&gt;" style="ellipse;whiteSpace=wrap;html=1;aspect=fixed;fillColor=#d5e8d4;strokeColor=#82b366;" vertex="1" parent="1">
          <mxGeometry x="80" y="200" width="110" height="110" as="geometry" />
        </mxCell>
        <mxCell id="ou2zcvMPRxFPWoFnGi-2-15" value="" style="edgeStyle=orthogonalEdgeStyle;rounded=0;orthogonalLoop=1;jettySize=auto;html=1;" edge="1" parent="1" source="ou2zcvMPRxFPWoFnGi-2-7" target="ou2zcvMPRxFPWoFnGi-2-4">
          <mxGeometry relative="1" as="geometry" />
        </mxCell>
        <mxCell id="ou2zcvMPRxFPWoFnGi-2-7" value="&lt;h1&gt;&lt;font style=&quot;font-size: 15px;&quot;&gt;author name,identity&lt;/font&gt;&lt;/h1&gt;" style="ellipse;whiteSpace=wrap;html=1;aspect=fixed;fillColor=#d5e8d4;strokeColor=#82b366;fontStyle=3;align=center;" vertex="1" parent="1">
          <mxGeometry x="304" y="310" width="110" height="110" as="geometry" />
        </mxCell>
        <mxCell id="ou2zcvMPRxFPWoFnGi-2-14" value="" style="edgeStyle=orthogonalEdgeStyle;rounded=0;orthogonalLoop=1;jettySize=auto;html=1;" edge="1" parent="1" source="ou2zcvMPRxFPWoFnGi-2-8" target="ou2zcvMPRxFPWoFnGi-2-5">
          <mxGeometry relative="1" as="geometry" />
        </mxCell>
        <mxCell id="ou2zcvMPRxFPWoFnGi-2-8" value="&lt;h2&gt;&lt;font face=&quot;Courier New&quot;&gt;&lt;i&gt;publisher name,&lt;br&gt;pb id&lt;/i&gt;&lt;/font&gt;&lt;/h2&gt;" style="ellipse;whiteSpace=wrap;html=1;aspect=fixed;fillColor=#d5e8d4;strokeColor=#82b366;" vertex="1" parent="1">
          <mxGeometry x="585" y="370" width="110" height="110" as="geometry" />
        </mxCell>
        <mxCell id="ou2zcvMPRxFPWoFnGi-2-10" value="" style="endArrow=classic;startArrow=classic;html=1;rounded=0;entryX=1;entryY=0.5;entryDx=0;entryDy=0;exitX=0.433;exitY=-0.011;exitDx=0;exitDy=0;exitPerimeter=0;" edge="1" parent="1" source="ou2zcvMPRxFPWoFnGi-2-4" target="ou2zcvMPRxFPWoFnGi-2-3">
          <mxGeometry width="50" height="50" relative="1" as="geometry">
            <mxPoint x="390" y="170" as="sourcePoint" />
            <mxPoint x="440" y="120" as="targetPoint" />
            <Array as="points">
              <mxPoint x="490" y="10" />
            </Array>
          </mxGeometry>
        </mxCell>
        <mxCell id="ou2zcvMPRxFPWoFnGi-2-11" value="" style="endArrow=classic;html=1;rounded=0;" edge="1" parent="1">
          <mxGeometry width="50" height="50" relative="1" as="geometry">
            <mxPoint x="610" y="210" as="sourcePoint" />
            <mxPoint x="610" y="210" as="targetPoint" />
            <Array as="points">
              <mxPoint x="490" y="10" />
            </Array>
          </mxGeometry>
        </mxCell>
        <mxCell id="ou2zcvMPRxFPWoFnGi-2-18" value="&lt;h1&gt;&lt;font face=&quot;Verdana&quot;&gt;ER Diagram&lt;/font&gt;&lt;/h1&gt;" style="shape=note2;boundedLbl=1;whiteSpace=wrap;html=1;size=25;verticalAlign=top;align=center;fillColor=#fff2cc;strokeColor=#d6b656;rotation=1;" vertex="1" parent="1">
          <mxGeometry x="450.17" y="-100" width="139.83" height="110.18" as="geometry" />
        </mxCell>
      </root>
    </mxGraphModel>
  </diagram>
</mxfile>
